<mxfile host="app.diagrams.net" modified="2022-02-17T20:58:13.749Z" agent="5.0 (Macintosh; Intel Mac OS X 10_15_7) AppleWebKit/537.36 (KHTML, like Gecko) Chrome/98.0.4758.102 Safari/537.36 Edg/98.0.1108.55" etag="CGpc9W1hssTFePGXR1pP" version="16.6.0" type="github">
  <diagram id="s6UIVJxOLNe1u5c5qO1Z" name="Page-1">
    <mxGraphModel dx="2543" dy="2034" grid="1" gridSize="5" guides="1" tooltips="1" connect="1" arrows="1" fold="1" page="1" pageScale="1" pageWidth="2336" pageHeight="1654" math="0" shadow="0">
      <root>
        <mxCell id="0" />
        <mxCell id="1" parent="0" />
        <mxCell id="u30Uzijzj81HhDyL5Jik-71" style="edgeStyle=orthogonalEdgeStyle;rounded=0;orthogonalLoop=1;jettySize=auto;html=1;entryX=0;entryY=0.5;entryDx=0;entryDy=0;" edge="1" parent="1" source="u30Uzijzj81HhDyL5Jik-1" target="u30Uzijzj81HhDyL5Jik-14">
          <mxGeometry relative="1" as="geometry" />
        </mxCell>
        <mxCell id="u30Uzijzj81HhDyL5Jik-1" value="" style="rounded=1;whiteSpace=wrap;html=1;" vertex="1" parent="1">
          <mxGeometry x="140" y="703.25" width="120" height="210" as="geometry" />
        </mxCell>
        <mxCell id="u30Uzijzj81HhDyL5Jik-3" value="Username" style="rounded=0;whiteSpace=wrap;html=1;" vertex="1" parent="1">
          <mxGeometry x="160" y="783.25" width="80" height="20" as="geometry" />
        </mxCell>
        <mxCell id="u30Uzijzj81HhDyL5Jik-4" value="Password" style="rounded=0;whiteSpace=wrap;html=1;" vertex="1" parent="1">
          <mxGeometry x="160" y="813.25" width="80" height="20" as="geometry" />
        </mxCell>
        <mxCell id="u30Uzijzj81HhDyL5Jik-5" value="Login Screen" style="text;html=1;strokeColor=none;fillColor=none;align=center;verticalAlign=middle;whiteSpace=wrap;rounded=0;" vertex="1" parent="1">
          <mxGeometry x="160" y="923.25" width="80" height="30" as="geometry" />
        </mxCell>
        <mxCell id="u30Uzijzj81HhDyL5Jik-9" value="" style="shape=image;verticalLabelPosition=bottom;labelBackgroundColor=default;verticalAlign=top;aspect=fixed;imageAspect=0;image=https://assets.justinmind.com/wp-content/uploads/2021/01/what-are-app-wireframes.png;clipPath=inset(7.38% 57% 84.84% 9.67%);" vertex="1" parent="1">
          <mxGeometry x="147.37" y="713.25" width="105.26" height="20" as="geometry" />
        </mxCell>
        <mxCell id="u30Uzijzj81HhDyL5Jik-10" value="Login" style="rounded=0;whiteSpace=wrap;html=1;" vertex="1" parent="1">
          <mxGeometry x="175" y="853.25" width="50" height="20" as="geometry" />
        </mxCell>
        <mxCell id="u30Uzijzj81HhDyL5Jik-13" value="" style="shape=image;verticalLabelPosition=bottom;labelBackgroundColor=default;verticalAlign=top;aspect=fixed;imageAspect=0;image=https://assets.justinmind.com/wp-content/uploads/2021/01/what-are-app-wireframes.png;clipPath=inset(85.25% 11.67% 6.15% 54%);" vertex="1" parent="1">
          <mxGeometry x="156.48000000000002" y="893.25" width="87.03" height="17.75" as="geometry" />
        </mxCell>
        <mxCell id="u30Uzijzj81HhDyL5Jik-14" value="" style="rounded=1;whiteSpace=wrap;html=1;" vertex="1" parent="1">
          <mxGeometry x="375" y="703.25" width="120" height="210" as="geometry" />
        </mxCell>
        <mxCell id="u30Uzijzj81HhDyL5Jik-15" value="" style="shape=image;verticalLabelPosition=bottom;labelBackgroundColor=default;verticalAlign=top;aspect=fixed;imageAspect=0;image=https://assets.justinmind.com/wp-content/uploads/2021/01/what-are-app-wireframes.png;clipPath=inset(7.38% 57% 84.84% 9.67%);" vertex="1" parent="1">
          <mxGeometry x="382.37" y="713.25" width="105.26" height="20" as="geometry" />
        </mxCell>
        <mxCell id="u30Uzijzj81HhDyL5Jik-16" value="" style="shape=image;verticalLabelPosition=bottom;labelBackgroundColor=default;verticalAlign=top;aspect=fixed;imageAspect=0;image=https://assets.justinmind.com/wp-content/uploads/2021/01/what-are-app-wireframes.png;clipPath=inset(85.25% 11.67% 6.15% 54%);" vertex="1" parent="1">
          <mxGeometry x="391.48" y="893.25" width="87.03" height="17.75" as="geometry" />
        </mxCell>
        <mxCell id="u30Uzijzj81HhDyL5Jik-34" style="edgeStyle=orthogonalEdgeStyle;rounded=0;orthogonalLoop=1;jettySize=auto;html=1;entryX=0;entryY=0.5;entryDx=0;entryDy=0;fillColor=#dae8fc;strokeColor=#6c8ebf;" edge="1" parent="1" source="u30Uzijzj81HhDyL5Jik-23" target="u30Uzijzj81HhDyL5Jik-30">
          <mxGeometry relative="1" as="geometry" />
        </mxCell>
        <mxCell id="u30Uzijzj81HhDyL5Jik-23" value="Select Office" style="rounded=0;whiteSpace=wrap;html=1;" vertex="1" parent="1">
          <mxGeometry x="395" y="830.5" width="80" height="20" as="geometry" />
        </mxCell>
        <mxCell id="u30Uzijzj81HhDyL5Jik-24" value="Create Route" style="text;html=1;strokeColor=none;fillColor=none;align=center;verticalAlign=middle;whiteSpace=wrap;rounded=0;" vertex="1" parent="1">
          <mxGeometry x="395" y="740.5" width="80" height="30" as="geometry" />
        </mxCell>
        <mxCell id="u30Uzijzj81HhDyL5Jik-25" value="Create Route" style="text;html=1;strokeColor=none;fillColor=none;align=center;verticalAlign=middle;whiteSpace=wrap;rounded=0;" vertex="1" parent="1">
          <mxGeometry x="395" y="925.5" width="80" height="30" as="geometry" />
        </mxCell>
        <mxCell id="u30Uzijzj81HhDyL5Jik-33" style="edgeStyle=orthogonalEdgeStyle;rounded=0;orthogonalLoop=1;jettySize=auto;html=1;entryX=0;entryY=0.5;entryDx=0;entryDy=0;fillColor=#dae8fc;strokeColor=#6c8ebf;" edge="1" parent="1" source="u30Uzijzj81HhDyL5Jik-26" target="u30Uzijzj81HhDyL5Jik-27">
          <mxGeometry relative="1" as="geometry" />
        </mxCell>
        <mxCell id="u30Uzijzj81HhDyL5Jik-26" value="Select Pickup" style="rounded=0;whiteSpace=wrap;html=1;" vertex="1" parent="1">
          <mxGeometry x="394.99" y="790.5" width="80" height="20" as="geometry" />
        </mxCell>
        <mxCell id="u30Uzijzj81HhDyL5Jik-45" style="edgeStyle=orthogonalEdgeStyle;rounded=0;orthogonalLoop=1;jettySize=auto;html=1;entryX=0;entryY=0.5;entryDx=0;entryDy=0;fillColor=#dae8fc;strokeColor=#6c8ebf;" edge="1" parent="1" source="u30Uzijzj81HhDyL5Jik-27" target="u30Uzijzj81HhDyL5Jik-42">
          <mxGeometry relative="1" as="geometry" />
        </mxCell>
        <mxCell id="u30Uzijzj81HhDyL5Jik-27" value="" style="rounded=1;whiteSpace=wrap;html=1;" vertex="1" parent="1">
          <mxGeometry x="600" y="500" width="120" height="210" as="geometry" />
        </mxCell>
        <mxCell id="u30Uzijzj81HhDyL5Jik-28" value="" style="shape=image;verticalLabelPosition=bottom;labelBackgroundColor=default;verticalAlign=top;aspect=fixed;imageAspect=0;image=https://assets.justinmind.com/wp-content/uploads/2021/01/what-are-app-wireframes.png;clipPath=inset(7.38% 57% 84.84% 9.67%);" vertex="1" parent="1">
          <mxGeometry x="607.3699999999999" y="510" width="105.26" height="20" as="geometry" />
        </mxCell>
        <mxCell id="u30Uzijzj81HhDyL5Jik-29" value="" style="shape=image;verticalLabelPosition=bottom;labelBackgroundColor=default;verticalAlign=top;aspect=fixed;imageAspect=0;image=https://assets.justinmind.com/wp-content/uploads/2021/01/what-are-app-wireframes.png;clipPath=inset(85.25% 11.67% 6.15% 54%);" vertex="1" parent="1">
          <mxGeometry x="616.48" y="690" width="87.03" height="17.75" as="geometry" />
        </mxCell>
        <mxCell id="u30Uzijzj81HhDyL5Jik-63" style="edgeStyle=orthogonalEdgeStyle;rounded=0;orthogonalLoop=1;jettySize=auto;html=1;entryX=0.5;entryY=1;entryDx=0;entryDy=0;fillColor=#dae8fc;strokeColor=#6c8ebf;" edge="1" parent="1" source="u30Uzijzj81HhDyL5Jik-30" target="u30Uzijzj81HhDyL5Jik-53">
          <mxGeometry relative="1" as="geometry" />
        </mxCell>
        <mxCell id="u30Uzijzj81HhDyL5Jik-30" value="" style="rounded=1;whiteSpace=wrap;html=1;" vertex="1" parent="1">
          <mxGeometry x="600" y="923.25" width="120" height="210" as="geometry" />
        </mxCell>
        <mxCell id="u30Uzijzj81HhDyL5Jik-31" value="" style="shape=image;verticalLabelPosition=bottom;labelBackgroundColor=default;verticalAlign=top;aspect=fixed;imageAspect=0;image=https://assets.justinmind.com/wp-content/uploads/2021/01/what-are-app-wireframes.png;clipPath=inset(7.38% 57% 84.84% 9.67%);" vertex="1" parent="1">
          <mxGeometry x="607.3699999999999" y="933.25" width="105.26" height="20" as="geometry" />
        </mxCell>
        <mxCell id="u30Uzijzj81HhDyL5Jik-32" value="" style="shape=image;verticalLabelPosition=bottom;labelBackgroundColor=default;verticalAlign=top;aspect=fixed;imageAspect=0;image=https://assets.justinmind.com/wp-content/uploads/2021/01/what-are-app-wireframes.png;clipPath=inset(85.25% 11.67% 6.15% 54%);" vertex="1" parent="1">
          <mxGeometry x="616.48" y="1113.25" width="87.03" height="17.75" as="geometry" />
        </mxCell>
        <mxCell id="u30Uzijzj81HhDyL5Jik-39" value="" style="verticalLabelPosition=bottom;verticalAlign=top;html=1;shadow=0;dashed=0;strokeWidth=1;shape=mxgraph.ios.iBgMap;strokeColor=#18211b;strokeColor2=#008cff;fillColor2=#96D1FF;" vertex="1" parent="1">
          <mxGeometry x="605" y="535" width="110" height="150" as="geometry" />
        </mxCell>
        <mxCell id="u30Uzijzj81HhDyL5Jik-40" value="Select Area on Map" style="text;html=1;strokeColor=none;fillColor=none;align=center;verticalAlign=middle;whiteSpace=wrap;rounded=0;" vertex="1" parent="1">
          <mxGeometry x="619.99" y="535" width="80" height="30" as="geometry" />
        </mxCell>
        <mxCell id="u30Uzijzj81HhDyL5Jik-41" value="" style="html=1;verticalLabelPosition=bottom;align=center;labelBackgroundColor=#ffffff;verticalAlign=top;strokeWidth=2;strokeColor=#F0551D;shadow=0;dashed=0;shape=mxgraph.ios7.icons.pointer;rotation=135;" vertex="1" parent="1">
          <mxGeometry x="645" y="625" width="15" height="15" as="geometry" />
        </mxCell>
        <mxCell id="u30Uzijzj81HhDyL5Jik-46" style="edgeStyle=orthogonalEdgeStyle;rounded=0;orthogonalLoop=1;jettySize=auto;html=1;entryX=0.5;entryY=0;entryDx=0;entryDy=0;fillColor=#d5e8d4;strokeColor=#82b366;exitX=0.5;exitY=0;exitDx=0;exitDy=0;" edge="1" parent="1" source="u30Uzijzj81HhDyL5Jik-42" target="u30Uzijzj81HhDyL5Jik-14">
          <mxGeometry relative="1" as="geometry">
            <mxPoint x="925" y="475" as="sourcePoint" />
            <Array as="points">
              <mxPoint x="870" y="475" />
              <mxPoint x="435" y="475" />
            </Array>
          </mxGeometry>
        </mxCell>
        <mxCell id="u30Uzijzj81HhDyL5Jik-64" style="edgeStyle=orthogonalEdgeStyle;rounded=0;orthogonalLoop=1;jettySize=auto;html=1;entryX=0.5;entryY=0;entryDx=0;entryDy=0;fillColor=#dae8fc;strokeColor=#6c8ebf;" edge="1" parent="1" source="u30Uzijzj81HhDyL5Jik-42" target="u30Uzijzj81HhDyL5Jik-53">
          <mxGeometry relative="1" as="geometry" />
        </mxCell>
        <mxCell id="u30Uzijzj81HhDyL5Jik-42" value="" style="rounded=1;whiteSpace=wrap;html=1;" vertex="1" parent="1">
          <mxGeometry x="810" y="500" width="120" height="210" as="geometry" />
        </mxCell>
        <mxCell id="u30Uzijzj81HhDyL5Jik-43" value="" style="shape=image;verticalLabelPosition=bottom;labelBackgroundColor=default;verticalAlign=top;aspect=fixed;imageAspect=0;image=https://assets.justinmind.com/wp-content/uploads/2021/01/what-are-app-wireframes.png;clipPath=inset(7.38% 57% 84.84% 9.67%);" vertex="1" parent="1">
          <mxGeometry x="817.3699999999999" y="510" width="105.26" height="20" as="geometry" />
        </mxCell>
        <mxCell id="u30Uzijzj81HhDyL5Jik-44" value="" style="shape=image;verticalLabelPosition=bottom;labelBackgroundColor=default;verticalAlign=top;aspect=fixed;imageAspect=0;image=https://assets.justinmind.com/wp-content/uploads/2021/01/what-are-app-wireframes.png;clipPath=inset(85.25% 11.67% 6.15% 54%);" vertex="1" parent="1">
          <mxGeometry x="826.48" y="690" width="87.03" height="17.75" as="geometry" />
        </mxCell>
        <mxCell id="u30Uzijzj81HhDyL5Jik-35" value="Select pickup&#xa;point in area" style="swimlane;fontStyle=0;childLayout=stackLayout;horizontal=1;startSize=30;horizontalStack=0;resizeParent=1;resizeParentMax=0;resizeLast=0;collapsible=1;marginBottom=0;" vertex="1" parent="1">
          <mxGeometry x="815" y="551.75" width="110" height="120" as="geometry" />
        </mxCell>
        <mxCell id="u30Uzijzj81HhDyL5Jik-36" value="P 1   1 km" style="text;strokeColor=none;fillColor=none;align=left;verticalAlign=middle;spacingLeft=4;spacingRight=4;overflow=hidden;points=[[0,0.5],[1,0.5]];portConstraint=eastwest;rotatable=0;" vertex="1" parent="u30Uzijzj81HhDyL5Jik-35">
          <mxGeometry y="30" width="110" height="30" as="geometry" />
        </mxCell>
        <mxCell id="u30Uzijzj81HhDyL5Jik-37" value="P 2   0.2 km" style="text;strokeColor=none;fillColor=none;align=left;verticalAlign=middle;spacingLeft=4;spacingRight=4;overflow=hidden;points=[[0,0.5],[1,0.5]];portConstraint=eastwest;rotatable=0;" vertex="1" parent="u30Uzijzj81HhDyL5Jik-35">
          <mxGeometry y="60" width="110" height="30" as="geometry" />
        </mxCell>
        <mxCell id="u30Uzijzj81HhDyL5Jik-38" value="P 3   0.5 km" style="text;strokeColor=none;fillColor=none;align=left;verticalAlign=middle;spacingLeft=4;spacingRight=4;overflow=hidden;points=[[0,0.5],[1,0.5]];portConstraint=eastwest;rotatable=0;" vertex="1" parent="u30Uzijzj81HhDyL5Jik-35">
          <mxGeometry y="90" width="110" height="30" as="geometry" />
        </mxCell>
        <mxCell id="u30Uzijzj81HhDyL5Jik-47" value="Select &#xa;Office branch" style="swimlane;fontStyle=0;childLayout=stackLayout;horizontal=1;startSize=30;horizontalStack=0;resizeParent=1;resizeParentMax=0;resizeLast=0;collapsible=1;marginBottom=0;" vertex="1" parent="1">
          <mxGeometry x="605" y="975" width="110" height="120" as="geometry" />
        </mxCell>
        <mxCell id="u30Uzijzj81HhDyL5Jik-48" value="Q 1   " style="text;strokeColor=none;fillColor=none;align=left;verticalAlign=middle;spacingLeft=4;spacingRight=4;overflow=hidden;points=[[0,0.5],[1,0.5]];portConstraint=eastwest;rotatable=0;" vertex="1" parent="u30Uzijzj81HhDyL5Jik-47">
          <mxGeometry y="30" width="110" height="30" as="geometry" />
        </mxCell>
        <mxCell id="u30Uzijzj81HhDyL5Jik-49" value="Q 2  " style="text;strokeColor=none;fillColor=none;align=left;verticalAlign=middle;spacingLeft=4;spacingRight=4;overflow=hidden;points=[[0,0.5],[1,0.5]];portConstraint=eastwest;rotatable=0;" vertex="1" parent="u30Uzijzj81HhDyL5Jik-47">
          <mxGeometry y="60" width="110" height="30" as="geometry" />
        </mxCell>
        <mxCell id="u30Uzijzj81HhDyL5Jik-50" value="Q 3 " style="text;strokeColor=none;fillColor=none;align=left;verticalAlign=middle;spacingLeft=4;spacingRight=4;overflow=hidden;points=[[0,0.5],[1,0.5]];portConstraint=eastwest;rotatable=0;" vertex="1" parent="u30Uzijzj81HhDyL5Jik-47">
          <mxGeometry y="90" width="110" height="30" as="geometry" />
        </mxCell>
        <mxCell id="u30Uzijzj81HhDyL5Jik-53" value="" style="rounded=1;whiteSpace=wrap;html=1;" vertex="1" parent="1">
          <mxGeometry x="985" y="688.25" width="120" height="210" as="geometry" />
        </mxCell>
        <mxCell id="u30Uzijzj81HhDyL5Jik-54" value="" style="shape=image;verticalLabelPosition=bottom;labelBackgroundColor=default;verticalAlign=top;aspect=fixed;imageAspect=0;image=https://assets.justinmind.com/wp-content/uploads/2021/01/what-are-app-wireframes.png;clipPath=inset(7.38% 57% 84.84% 9.67%);" vertex="1" parent="1">
          <mxGeometry x="992.3699999999999" y="698.25" width="105.26" height="20" as="geometry" />
        </mxCell>
        <mxCell id="u30Uzijzj81HhDyL5Jik-55" value="" style="shape=image;verticalLabelPosition=bottom;labelBackgroundColor=default;verticalAlign=top;aspect=fixed;imageAspect=0;image=https://assets.justinmind.com/wp-content/uploads/2021/01/what-are-app-wireframes.png;clipPath=inset(85.25% 11.67% 6.15% 54%);" vertex="1" parent="1">
          <mxGeometry x="1001.48" y="878.25" width="87.03" height="17.75" as="geometry" />
        </mxCell>
        <mxCell id="u30Uzijzj81HhDyL5Jik-59" value="" style="rounded=1;whiteSpace=wrap;html=1;" vertex="1" parent="1">
          <mxGeometry x="1740" y="685" width="120" height="210" as="geometry" />
        </mxCell>
        <mxCell id="u30Uzijzj81HhDyL5Jik-60" value="" style="shape=image;verticalLabelPosition=bottom;labelBackgroundColor=default;verticalAlign=top;aspect=fixed;imageAspect=0;image=https://assets.justinmind.com/wp-content/uploads/2021/01/what-are-app-wireframes.png;clipPath=inset(7.38% 57% 84.84% 9.67%);" vertex="1" parent="1">
          <mxGeometry x="1747.37" y="695" width="105.26" height="20" as="geometry" />
        </mxCell>
        <mxCell id="u30Uzijzj81HhDyL5Jik-61" value="" style="shape=image;verticalLabelPosition=bottom;labelBackgroundColor=default;verticalAlign=top;aspect=fixed;imageAspect=0;image=https://assets.justinmind.com/wp-content/uploads/2021/01/what-are-app-wireframes.png;clipPath=inset(85.25% 11.67% 6.15% 54%);" vertex="1" parent="1">
          <mxGeometry x="1756.48" y="875" width="87.03" height="17.75" as="geometry" />
        </mxCell>
        <mxCell id="u30Uzijzj81HhDyL5Jik-87" style="edgeStyle=orthogonalEdgeStyle;rounded=0;orthogonalLoop=1;jettySize=auto;html=1;entryX=0;entryY=0.5;entryDx=0;entryDy=0;" edge="1" parent="1" source="u30Uzijzj81HhDyL5Jik-67" target="u30Uzijzj81HhDyL5Jik-72">
          <mxGeometry relative="1" as="geometry" />
        </mxCell>
        <mxCell id="u30Uzijzj81HhDyL5Jik-67" value="Split Shuttle" style="rounded=0;whiteSpace=wrap;html=1;strokeColor=#F0551D;" vertex="1" parent="1">
          <mxGeometry x="998.51" y="823.25" width="90" height="25" as="geometry" />
        </mxCell>
        <mxCell id="u30Uzijzj81HhDyL5Jik-68" value="Regular Shuttle" style="rounded=0;whiteSpace=wrap;html=1;strokeColor=#F0551D;" vertex="1" parent="1">
          <mxGeometry x="998.51" y="785.75" width="90" height="25" as="geometry" />
        </mxCell>
        <mxCell id="u30Uzijzj81HhDyL5Jik-69" value="Rides Available" style="text;html=1;align=center;verticalAlign=middle;resizable=0;points=[];autosize=1;strokeColor=none;fillColor=none;" vertex="1" parent="1">
          <mxGeometry x="998" y="743.25" width="95" height="20" as="geometry" />
        </mxCell>
        <mxCell id="u30Uzijzj81HhDyL5Jik-72" value="" style="rounded=1;whiteSpace=wrap;html=1;" vertex="1" parent="1">
          <mxGeometry x="1215" y="690" width="120" height="210" as="geometry" />
        </mxCell>
        <mxCell id="u30Uzijzj81HhDyL5Jik-73" value="" style="shape=image;verticalLabelPosition=bottom;labelBackgroundColor=default;verticalAlign=top;aspect=fixed;imageAspect=0;image=https://assets.justinmind.com/wp-content/uploads/2021/01/what-are-app-wireframes.png;clipPath=inset(7.38% 57% 84.84% 9.67%);" vertex="1" parent="1">
          <mxGeometry x="1222.37" y="700" width="105.26" height="20" as="geometry" />
        </mxCell>
        <mxCell id="u30Uzijzj81HhDyL5Jik-74" value="" style="shape=image;verticalLabelPosition=bottom;labelBackgroundColor=default;verticalAlign=top;aspect=fixed;imageAspect=0;image=https://assets.justinmind.com/wp-content/uploads/2021/01/what-are-app-wireframes.png;clipPath=inset(85.25% 11.67% 6.15% 54%);" vertex="1" parent="1">
          <mxGeometry x="1231.48" y="880" width="87.03" height="17.75" as="geometry" />
        </mxCell>
        <mxCell id="u30Uzijzj81HhDyL5Jik-84" value="" style="rounded=1;absoluteArcSize=1;html=1;arcSize=10;strokeColor=#F0551D;" vertex="1" parent="1">
          <mxGeometry x="1223.68" y="778.25" width="102.63" height="25" as="geometry" />
        </mxCell>
        <mxCell id="u30Uzijzj81HhDyL5Jik-85" value="R1" style="html=1;shape=mxgraph.er.anchor;whiteSpace=wrap;strokeColor=#F0551D;" vertex="1" parent="u30Uzijzj81HhDyL5Jik-84">
          <mxGeometry width="51.315" height="25.000000000000004" as="geometry" />
        </mxCell>
        <mxCell id="u30Uzijzj81HhDyL5Jik-86" value="10:00am" style="rounded=1;absoluteArcSize=1;html=1;arcSize=10;whiteSpace=wrap;points=[];strokeColor=inherit;fillColor=inherit;" vertex="1" parent="u30Uzijzj81HhDyL5Jik-84">
          <mxGeometry x="51.315" y="1.25" width="46.183499999999995" height="22.500000000000007" as="geometry" />
        </mxCell>
        <mxCell id="u30Uzijzj81HhDyL5Jik-88" value="Select Pickup Time" style="text;html=1;strokeColor=none;fillColor=none;align=center;verticalAlign=middle;whiteSpace=wrap;rounded=0;" vertex="1" parent="1">
          <mxGeometry x="1235" y="730" width="80" height="30" as="geometry" />
        </mxCell>
        <mxCell id="u30Uzijzj81HhDyL5Jik-90" value="" style="rounded=1;absoluteArcSize=1;html=1;arcSize=10;strokeColor=#F0551D;" vertex="1" parent="1">
          <mxGeometry x="1223.68" y="808.25" width="102.63" height="25" as="geometry" />
        </mxCell>
        <mxCell id="u30Uzijzj81HhDyL5Jik-91" value="R2" style="html=1;shape=mxgraph.er.anchor;whiteSpace=wrap;strokeColor=#F0551D;" vertex="1" parent="u30Uzijzj81HhDyL5Jik-90">
          <mxGeometry width="51.315" height="25.000000000000004" as="geometry" />
        </mxCell>
        <mxCell id="u30Uzijzj81HhDyL5Jik-92" value="10:15am" style="rounded=1;absoluteArcSize=1;html=1;arcSize=10;whiteSpace=wrap;points=[];strokeColor=inherit;fillColor=inherit;" vertex="1" parent="u30Uzijzj81HhDyL5Jik-90">
          <mxGeometry x="51.315" y="1.25" width="46.183499999999995" height="22.500000000000007" as="geometry" />
        </mxCell>
        <mxCell id="u30Uzijzj81HhDyL5Jik-93" value="" style="rounded=1;absoluteArcSize=1;html=1;arcSize=10;strokeColor=#F0551D;" vertex="1" parent="1">
          <mxGeometry x="1223.6799999999998" y="839.25" width="102.63" height="25" as="geometry" />
        </mxCell>
        <mxCell id="u30Uzijzj81HhDyL5Jik-94" value="R3" style="html=1;shape=mxgraph.er.anchor;whiteSpace=wrap;strokeColor=#F0551D;" vertex="1" parent="u30Uzijzj81HhDyL5Jik-93">
          <mxGeometry width="51.315" height="25.000000000000004" as="geometry" />
        </mxCell>
        <mxCell id="u30Uzijzj81HhDyL5Jik-95" value="10:20am" style="rounded=1;absoluteArcSize=1;html=1;arcSize=10;whiteSpace=wrap;points=[];strokeColor=inherit;fillColor=inherit;" vertex="1" parent="u30Uzijzj81HhDyL5Jik-93">
          <mxGeometry x="51.315" y="1.25" width="46.183499999999995" height="22.500000000000007" as="geometry" />
        </mxCell>
        <mxCell id="u30Uzijzj81HhDyL5Jik-96" value="Metro Timings" style="text;html=1;strokeColor=none;fillColor=none;align=center;verticalAlign=middle;whiteSpace=wrap;rounded=0;" vertex="1" parent="1">
          <mxGeometry x="1760" y="725" width="80" height="30" as="geometry" />
        </mxCell>
        <mxCell id="u30Uzijzj81HhDyL5Jik-97" value="" style="rounded=1;absoluteArcSize=1;html=1;arcSize=10;strokeColor=#F0551D;" vertex="1" parent="1">
          <mxGeometry x="1747.37" y="775.75" width="102.63" height="25" as="geometry" />
        </mxCell>
        <mxCell id="u30Uzijzj81HhDyL5Jik-98" value="T1" style="html=1;shape=mxgraph.er.anchor;whiteSpace=wrap;strokeColor=#F0551D;" vertex="1" parent="u30Uzijzj81HhDyL5Jik-97">
          <mxGeometry width="51.315" height="25.000000000000004" as="geometry" />
        </mxCell>
        <mxCell id="u30Uzijzj81HhDyL5Jik-99" value="11:00am" style="rounded=1;absoluteArcSize=1;html=1;arcSize=10;whiteSpace=wrap;points=[];strokeColor=inherit;fillColor=inherit;" vertex="1" parent="u30Uzijzj81HhDyL5Jik-97">
          <mxGeometry x="51.315" y="1.25" width="46.183499999999995" height="22.500000000000007" as="geometry" />
        </mxCell>
        <mxCell id="u30Uzijzj81HhDyL5Jik-100" value="" style="rounded=1;absoluteArcSize=1;html=1;arcSize=10;strokeColor=#F0551D;" vertex="1" parent="1">
          <mxGeometry x="1747.37" y="805.75" width="102.63" height="25" as="geometry" />
        </mxCell>
        <mxCell id="u30Uzijzj81HhDyL5Jik-101" value="T2" style="html=1;shape=mxgraph.er.anchor;whiteSpace=wrap;strokeColor=#F0551D;" vertex="1" parent="u30Uzijzj81HhDyL5Jik-100">
          <mxGeometry width="51.315" height="25.000000000000004" as="geometry" />
        </mxCell>
        <mxCell id="u30Uzijzj81HhDyL5Jik-102" value="11:15am" style="rounded=1;absoluteArcSize=1;html=1;arcSize=10;whiteSpace=wrap;points=[];strokeColor=inherit;fillColor=inherit;" vertex="1" parent="u30Uzijzj81HhDyL5Jik-100">
          <mxGeometry x="51.315" y="1.25" width="46.183499999999995" height="22.500000000000007" as="geometry" />
        </mxCell>
        <mxCell id="u30Uzijzj81HhDyL5Jik-103" value="" style="rounded=1;absoluteArcSize=1;html=1;arcSize=10;strokeColor=#F0551D;" vertex="1" parent="1">
          <mxGeometry x="1747.37" y="836.75" width="102.63" height="25" as="geometry" />
        </mxCell>
        <mxCell id="u30Uzijzj81HhDyL5Jik-104" value="T3" style="html=1;shape=mxgraph.er.anchor;whiteSpace=wrap;strokeColor=#F0551D;" vertex="1" parent="u30Uzijzj81HhDyL5Jik-103">
          <mxGeometry width="51.315" height="25.000000000000004" as="geometry" />
        </mxCell>
        <mxCell id="u30Uzijzj81HhDyL5Jik-105" value="11:20am" style="rounded=1;absoluteArcSize=1;html=1;arcSize=10;whiteSpace=wrap;points=[];strokeColor=inherit;fillColor=inherit;" vertex="1" parent="u30Uzijzj81HhDyL5Jik-103">
          <mxGeometry x="51.315" y="1.25" width="46.183499999999995" height="22.500000000000007" as="geometry" />
        </mxCell>
        <mxCell id="u30Uzijzj81HhDyL5Jik-106" value="" style="rounded=1;whiteSpace=wrap;html=1;" vertex="1" parent="1">
          <mxGeometry x="1400" y="690" width="120" height="210" as="geometry" />
        </mxCell>
        <mxCell id="u30Uzijzj81HhDyL5Jik-107" value="" style="shape=image;verticalLabelPosition=bottom;labelBackgroundColor=default;verticalAlign=top;aspect=fixed;imageAspect=0;image=https://assets.justinmind.com/wp-content/uploads/2021/01/what-are-app-wireframes.png;clipPath=inset(7.38% 57% 84.84% 9.67%);" vertex="1" parent="1">
          <mxGeometry x="1407.37" y="700" width="105.26" height="20" as="geometry" />
        </mxCell>
        <mxCell id="u30Uzijzj81HhDyL5Jik-108" value="" style="shape=image;verticalLabelPosition=bottom;labelBackgroundColor=default;verticalAlign=top;aspect=fixed;imageAspect=0;image=https://assets.justinmind.com/wp-content/uploads/2021/01/what-are-app-wireframes.png;clipPath=inset(85.25% 11.67% 6.15% 54%);" vertex="1" parent="1">
          <mxGeometry x="1416.48" y="880" width="87.03" height="17.75" as="geometry" />
        </mxCell>
        <mxCell id="u30Uzijzj81HhDyL5Jik-109" value="Metro QR" style="text;html=1;strokeColor=none;fillColor=none;align=center;verticalAlign=middle;whiteSpace=wrap;rounded=0;" vertex="1" parent="1">
          <mxGeometry x="1419.99" y="724.5" width="80" height="30" as="geometry" />
        </mxCell>
        <mxCell id="u30Uzijzj81HhDyL5Jik-110" value="" style="shape=image;verticalLabelPosition=bottom;labelBackgroundColor=default;verticalAlign=top;aspect=fixed;imageAspect=0;image=data:image/jpeg,/9j/4AAQSkZJRgABAQAAAQABAAD/2wCEAAkGBxISEhQTEhIVFhUVGCIVFxgWGCEXHhscFyQgFyEhHB4gISkhHhsmHBgcJzMiJiswLy8vISA0OTQtOCkuLywBCgoKDg0OHBAQHCwmIScuLi4sLi4sMy4uMC4uMS4uLC4uLi8uLi4uLi4uLi4uLi4uLi4uLi4uLi4uLi4uLi4uOP/AABEIAOEA4QMBIgACEQEDEQH/xAAcAAACAwEBAQEAAAAAAAAAAAAABwQFBggDAgH/xABPEAABAgMFAgYMDAUDAwUBAAABAgMABBEFBgcSIRMxFyJBUVSyFDI1U2Fyc5KTsdHSIyQlMzRScXSRosLTCBaho7MVgcNCg8FVYpTi40P/xAAZAQEAAwEBAAAAAAAAAAAAAAAAAQIDBAX/xAAvEQACAgEDAgQFBAIDAAAAAAAAAQIRAxIhMQQTIjJRoRQzQVJxQmGB8CORNLHh/9oADAMBAAIRAxEAPwB4wQR+EwAQRH7Oa76jzh7YOzmu+o84e2JpkWSIIj9nNd9R5w9sHZzXfUecPbCmLJEER+zmu+o84e2Ds5rvqPOHthTFkmCPBuabUaJWknmCgTHvEEhBHm66lIqpQA5yaR8NzCFGiVpUd9AQYA94IIIAII8nXkp7ZSU15yB64/Gn0KrlUlVN9CD6oA9oIIIAIII8XZlCTRS0pPhIEAesER+zmu+o84e2Ds5rvqPOHtiaZFkiCI/ZzXfUecPbB2c131HnD2wpiyRBEfs5rvqPOHtg7Oa76jzh7YUxZJgjzQsEVBBB3Eax6RBIQQQQB+CI9ofNOeIr1GJAiPaHzTniK9RiVyQzmVCBQaRI7Ac7yvzD7I+bPPwjXjp9YjpV51KElSlBKUgqKlGgAGpJJ0AA5Y9XPn7bW12eVhw9y96o5s7Ac7yvzD7IOwHO8r8w+yOg/wCZ5Hpkt6ZHvQfzPI9MlvTI96MPi5faa/Cw+7+/7OfOwHO8r8w+yPlcopIqptQHOUkD+ojoiWt2UcUENzTC1q3JS6hRPLoAanSKPFTua74yOuItHq25KLjyRLpUouSlwLnC5I/1JnT/AKV9Qw8Jh5CBmWpKU86iAPxMJDC4/KTPir6hhk4myy3JBaG21uKK0HKhJWdFAnQAmMupWrKl+DXpXWJtfuVmKk+y5IlKHW1naINErCjy8gMZbB0Ds9f3dXXbjIzVlTDSc7ss82ndmW0pAqeSpAFY0uFc+0zOrU86htOwUnM4oIFSps0qSBWgOngMbPGoYWk7MVkcsybVDqmZlDYq4tKATQFRCRXfTXl0jw/1mW6Qz6RPthfYsWxLPSrSWX2XFB8KIbcSsgZHBUgE6VI18IhaSki68SGWXHCNSG0FZA8ISDQRhi6ZSjqbo3ydS4y0pWMrGCcacalw24hdHFVyqCqcXwGImDs000qb2i0IqG6ZlBNabTdXfvEYoXfm+hzPoHPdiNOWe81TbMOt5u12jakVpvpmArvEdKxQePt2czyy7mujov8A1mW6Qz6RPtg/1mW6Qz6RPtjnOUs956uxYcdy9ts21LpXdXKDStDBNyDrNA8y42Vbto2pFab6ZgK7xGXwcbrUbfFyq9J0lLTTbgJbWlYGhKVBVPwhS4zD42z5H9SovcFfoz/lv0pijxmPxtnyP6lRnhhoz6S+aevDqMG3KqV2raleKkn1CPvsBzvK/MPshr4MfRn/AC36Uxsp22JZlWR6YZbVSuVbiUGh5aEg00Mbz6pxm4pWYw6ZSgpN0c7dgOd5X5h9kHYDneV+YfZHQf8AM8j0yW9Mj3oP5nkemS3pke9FPi5faT8LD7v7/s587Ac7yvzD7I8lNUNCmhG8EUMdLSky26gLaWlaDuUghSTQ0NCNDqCIQV9T8fmvKmNsPUdxtNUZ5sCxpO7HRcXufK+STF9FDcXufK+STF9HmZPM/wAnpY/KvwfsEEEVLn5Ee0PmnPEV6jEiI9ofNOeIr1GJRD4OaLOPwjXjp9Yjoi930Gb+7udRUc6WcfhGvHT6xHRV7/oE393d6io7eq80Th6byyOc6wVj4rBWO6zio02HR+UpXxldRcNDFbua746OuIVuHB+U5XxldRcNLFjua746OuI4c3zo/wAHbh+TL+RcYWn5SZ8VfUMO6enGmUFbziW0DQqWoJGug1OkI7Cs/KbPir6hho4kyDr8gttlBWsqQQlO+gUCf6RTqUnlSZfpm1ibRQ4oW9KvSRQzMsuL2iTlQ4lRoK1NAd0KyQkHX1FDLa3FAZilAqaCgr9lSPxiz/ky0ehu/wBPbGkw+kHbPmlPzyOx2lNKbC3CACtSkKCd+8hCj/sY3i44oNRdmElLLNOSox1oWNMsJCnmHG0k5QVpKQTQmn20B/CNtgqfjEx5JPWi2xEmkWjLttSC0zDiHQ4pDSgSEBK05jruzKSP94rMOpddnOvOTyexkOICEKdIAUoEmg1301is8jnid8+haGLRlVceoz7RtRiXAL7zbQUaArUE1PgrCuxctaXmBLbB9t3KV5tmsKpXJStDpWhifiKsWi2ymQImVNLKlhog5QoUBOvKQYW9q2LMy2XshlTeeuXNTWlK0ofCIz6fHFNSb39DTqMkmnFLb1GNghum/tb/AOSPTFyyJh9yWLDLjgSlYVkSVUqU0r+BjxwOOk59rf8AyQwbVtqWlikPvIbKqlOc0rTfT8RFck3HM2v7sWxwUsKT/u5lcJbNeYYfS80tsl2oCxlJGUCo/wBxGYxoPxtnyP6lQ1bKtViZSVMOocSk5SUGoB30/CFPjUfjbPkP1Khhk5ZrYzRUcNI0OCv0Z/y36Exl8YT8oDyCOsuNPgn9Ff8ALfoTGXxiPygPII6y40h/yGZz+QjE1grHxWCsd1nFQ/MLu5kv/wBz/IuFDfc/KE35Uw3cLe5cv/3P8i4UF+D8oTflTHDg+bL+f+zsz/Kj/A7Lh9zpXySYv4z9w+50p5JMaCOKfmf5O6HlQQQQRBY/YjWj8054ivUYkxGtH5pzxFeowQZzFZp+Ea8dPrEdIXkl1OScy2gZlrYcQkc6lJIA101JjmuRcCVtqO4KST9gIMPYYn2Z35fol+7Hd1Kk2mkcPTuKTTYrP5CtPoi/Pb9+P3+QrT6Ivz2/fhpcJ9md+X6JfuwcJ9md+X6Jfuw72b7fYdnF93uYi49z59ifl3XZZSG0KJUoqQaVSociid5EbjFrua747fXTH5wn2Z35fol+7GaxAvxIzck4yw4pTilIIBbUntVAnUim4Rn/AJJ5FJo0/wAcMbjFmawpPymz4q+oYeFp2i1Ltl19YQgEAqO6p0G7wwjsKD8ps+KvqGGVi73Mc8dHWEM61ZUiOnenE2XVlXnk5lezYfQ4uhVlFa0FATqPCIzWNP0Fvy6equMVg0flE+QX60RtMa/oLf3hPVXFdChlSRbW54m2ZfBM/HHfIHrojX4rWNMTUuymXaLiku5iAQKDKoV4xHKRGOwSPx17yB66Ia1u27LyaUrmXNmlSsqTlUqpoTTig8gMTmk1ltEYYp4qZisJ7vTUo5MGYZLYWlATUpNSCqvak84j3xYsGZmxLdjMlzIV5qFIpmy07YjmMaiwrzSk6ViWd2hQAVcRSaBVadskV3HdH3bt45WSyGZd2eeuXiqVXLSvag03jfFNcu5qrf0L6IdvTexgcPfkoPi0aS+2y7LOQc2zzZqZSd2dO/ninxZtuXmnJYy7qXAhKwrLXSpTTePAYsr9k2wWDZo7IDAWHaUay7TJl+dyVrkVurSmtKiMBblgTUmUCZa2ZWCU8ZKqhNK9oo03jfHTjSctbfi9DnyNqOhLw+o0sEPo0x5b9CYoMaz8cZ8h+pUXuB30aY8t+hMUGNp+OM+Q/WqKR+eWl8hGiwR+izHlv0JitxOuxOzM6HGJdTiNklOYKSNQVEjVQPKIhYYXulJJh1EwtSVLdziiFK0ypHIDygxs+E+zO/L9Ev3YrLXHK5RRaOiWJRkxW/yFafRF+e378H8hWn0Rfnt+/DS4T7M78v0S/dg4T7M78v0S/djTvZvt9inZxfd7k7D2z3ZeQZaeQUOJz5kkg0zLWobiRuIMJa/J+UJvyphtnE+zO/L9Ev3YTF6J5D85MOtmqHHCpJIIqD4DqIjp1LW5SXIzuOhRi+B9XC7nSnkkxoYztwe50p5FMaKOSfmZ2Q8qPyCCCKlj9jwnGyptaRvKSB9pFI948nXAlJUdyQSfsGsAIJOGdqU+YT6VHtj94M7U7wn0qPbDK4VLL7656Jfsg4U7M7656Jfsjr7uX09jk7OL19xa8Gdqd4T6VHtg4M7U7wn0qPbDK4U7M7656Jfsg4U7M7656Jfsh3c3p7Ds4vX3FpwaWp3hPpUe2Dg0tTvCfSo9sNWyMQZCZeQw04suOEhILakjQFW8ig0Bi8tq1WpVlb7xIbRTMQCo8YhI0Gu9Qirz5E6aJWDG1dixw/uRPSs808+0lLaQsEhxKu2SQNAa7zG2xEsh6bkVssJCnCpBAJCdEqBOp03CIPCnZnfXPRL9kHCnZnfXPRL9kUl3HJSr2LxWOMXFP3M/hpc2dk5wuzDQSjZKRULSrUlJGgNeQxpcTrDfnJVDUukKWHkrIKgnQJWN5PORHlwp2Z31z0S/ZBwp2Z31z0S/ZBvI5aqCWNR037lLhfdCckplxyYbCUqaKAQtKtcyTuB5gY9sc/osv5f9Co1F3r5yc84puXWpSkpzkFCk6VA3kc5EZXHX6LL+X/QqJjKTypyIlGKxtRKvAk/CzfiN+tcSsdjxZP7XPUiM1hbeaWkXJhUypSQ4lATlSVapKidw03iJGKd65WfEsJZalbMrKsyFJpmy03jXcY2cX3rrb/wy1Ls1f9s+8KrzysiJnslwo2hRlohS65c9e1SadsN8Wl9mTbSmV2b8MlgKQ4VfBUK8pGjgSTok7owl2rrTM/tOxwg7OmbMrL21aU017Uw3sLrszEg2+mYCQXFpUnKrNoBSIyOMZa09ycSlKOlrY/cLLAmJJh5EygIUt3MkBQVplA5DziKjFG6U5OzLTku2FJS1kJK0p1zKPKeYiNdeK98pIqQiZWpJWCpOVClaDTkESruXhl55tTkuoqSlezJKSnjABW4+BQjDXNS7lG7hBx0WJXg0tTvCfSo9sHBpaneE+lR7Ybl4L6yci6GZhakrKA4AEKVxSVJGoFN6TpFjYFuMzjW2YUVIzFNSkp1Tv0OvLGnfyVdGXw+O6sSXBpaneE+lR7YODS1O8J9Kj2w27dvzJSbpZfWtKwAqgbUoUVu1ApyRa2JazU2yl9gktqJAJBSeKSk6HXeDB58iVhdPjbqxH8Glqd4T6VHtg4M7U7wn0qPbDXti/wDISry2HnFhxumYBtShxkhY1AodFCLyybRbmWUPtElDgqkkEGm7cdRug8+RK2gunxt1ZEujIuMScuy6KLbbCVCoNCPCNDFzH7BHM3bs6UqVBBBBAkIi2l8y74ivUYlRHm2iptaRvUkpFfCKQBypIS6nVttppmcUltNdBVZCRXwVMbjgktLnl/SK9yPeRwvnpVbcw45LFDC0vLCVrKilohasoLYBVRJpUjXlEbSQxXkXnGmkNzGZ1aW01QkCrhCBXj7qmOyeWX6NzjhiivOLu0sM59hlx5wsZGkFxWVwk0SMxoMmpoIy9kWeuZebYby53DlTmNBXfqaHmjpe8siuYlJhlBSFutLbSVEgVWkpFSATSp5oWV08MZ6WnGH3FyxQ2vMoIWsqpQjQFsDl54rDN4XfJM8G6rgiWLcqasx9ufmi1sJeq3NmoqVQpKNBlFdVDli/t69stazK7PlCvbv0ybRJQn4Mh41VrTitq5N9I2V77McmpJ+XaKQtxOVJWSE1qDqQCeTmhXWTc6Zsh5FozamVMS9SsMqUpZ2iSyMoUhIPGcFaqGlfsiikp+J8/Q0cXHZcfUg8Elpc8v6RXuRW3huBOSTCn3izkSQDkWVGqjlGhSOUw2buYjyk7MJl2kPBawSCtKQOKCo1IWTuHNHljJ3Ld8dvriLLLPUkyrxQ0toQNYtrtXfen3iyxkzhBcOclIypKUnUA61WIpqwwsDT8oufdl9dqOicqi2jnxxTkkzWYaXIm5CZcdmC1lU1kGRRUa5kq5UjSgMW+J12X59hluXyZkO5znUUimVSdKA61Ii3vZedmz2kOvpcKVr2YyAE1IUrWpGlEH+kZfhks/vcz5iP3I405yetI7KhFaWYvgktLnl/SK9yKK9V0Zmzw2ZjZ/CkhOzUVdrStapH1hDR4Y7P73M+Yj9yKW8C/wCYsiZHiGVqXOyeJXbaJy5AuvzSq1pyb41jknfi4MZY8bXh5PXATdO/a1/yRuL0XwlbPU2mYK6uAlORObtaA15u2EYK76v5dzie4/ZdC32Nx6bHRWbOEU+dTSleXdyl4WFXhLbkhlQmWzIX2SSgkuZVDLkC6iiTWtOSKSSlPU+DSLcYaVyZzE+88vPusrl89EIKVZ05dSQdI3OBX0J/7yf8bcZLgetHvkp6Rz9qLy79qou+2qVngVuPLMwky/HSEkJboSvIc1WzpSlKaxebi4aYlIKSnqlsUmOB+UW/uyOu7G4wV7nf95f/AIhWYj3kZn5tD7AWEpZS0Q4ADVKlq5CdKLH9YaWCfc3/ALy//ERk2xJEwaeVtFTiHcGcnZwvsFnIUJTx1lJqmtdAk6axsbhWM7JyLUu9lzoKychzDjLUsUJA5COSIV5sQpSRfLDyHisJCqoSkiit2pUDXTmi7u5bbc7LomGgsIWVABYAVxFFBqASN6TyxlKUtKT4NYqOptciIxUPytN/a3/ibhy4Z9zJTxD1jCYxWPytN/a3/hbjX3PxOkpSTYl3EPlbacqilCSK1J0JWOfmjbIm8caMYNRySscEEQLGtJEyw2+2FBDqQtIUKGh56Eiv+8T45TqCCCCACCCPF93IlSjuSCr8NYA8bTly4y62kgFaFIBO6qgRr4NYUVi4SzjMzLvKflylp5t1QBXUhtaVkDi76CL6zsYpV51ppMtMAurS2CclAVkJBNFbqmGVWLpyjsUajLf0IVrT6Zdh19YJS0hTigmlSEAqNKkCtBymMBw0yPR5vzW/3Y3V4pAzErMMJUEl5pbYUdQCtJTU+DWFHwKTPS2fMVEwUP1ETc/0myu/ilKTkw3LNszCVukgFaUBIoCrWjhO5J5Ivb72MudknZZtSUrcy0K60GVaVmtATuSYW8lcJ2yHE2i6+h1uVqtSG0kKUCkooCTStVV1i24a5To0x+T34lx3uBCltUynsu6L1iLFozS23GmRlUhmpWS78EKBYSntlitSNKx537xJlZ+TXLtMzCVqUlQLgQE8VQUe1WTuHNHxfnE6XnpJ2WbYeQpZQQpeWgyLSs1ooncmMTdK767QmBLoWlCikrzKBI4tOb7Y1SvxT5Mm68MCprGow6vK1Z00p95Di0llTVGwkmqlIVXjKSKUQeXmiXe7Dh6z5czC321gKCMqUkHjfbFNcy7S7RmFMNuJbKWy7VQJFEqSmmnLxx+EaOUZR/YooyjL9zVYkX/l7Rl22WWnkKQ8HSXAgCgStFBlWo1qscnPGaufdV60luNsrbQW0hR2laEE00oDE++twHbNZQ84+24FuBoBKSCCUqXXXk4h/GNDgEfjM15JPWMZ2owuJanKfiPHgZnu/wAt+K/cjbYZ3Lfs1UwXnGl7YNhOzzabPPWtQPrj+sXF9L4NWahtbrbiw4opARTSgrrmIjJ8Ncp0aY/J78ZOWSaNVGEGWmJ1y37SMsWXGkbEOBW0za7TJSlAfqH+kZ+xZoXcSpqcCnlTKs6DLgEANgJObOUa8YUpXljaXKvq1aW22TTjexy12mXXPmpTKT9WKzEm4ztprYU28hvZJUDmBNc5SdKeLEKVeGXBLivNHku7n3sZtJtbjKHEBteQhwJBrQK0yqVpQxmsR7hTFozDbrLjSUobyEOFVa5irSiTprFRZtoJu2ky8yFPqmFF5KmQAEhISihzKGtRyRM4a5Tosx+T34lRadwDcWqkZ3gZnu/y34r9yGZh9d1yQlNg6pClZ1LqitKKpzgGukZXhrlOizH5Pfg4a5To0x+T34mXckqZEe3F2j9v/hzMz84Zhp1lKShKKLKq1TXmSRyxr7iWI5JSTUs6pKloKySitOOtSxSoB3KiRdO8CJ+WTMNoUhKlKTlXSvFOXkJHJGcvTibLyEyuWcYeWpISSpGWnGGblUDyxS5NaS1Ri9RRXzwym5ydfmW3mEodKSAsqzDKhDZrRJG9JhWXgspcnMOyzikqW0QCU1ocyQvSoB3Kht8Ncp0aY/J78Km+FsJnJ1+ZQlSUukEJVSoypSjWhI3pjfG58MxyqHK5OhcPO5kn5FPqjRRnMO+5kn5FPqjRxzS5Z0rg/YIIIqSERbS+Zd8RXqMSoi2l8y74ivUYkHKt1j8bk/vDPXTHU1sTwl5d58pKgy2p0pG8htJVQeE0jla6p+Nyf3hn/ImOprckOyJZ9jNl2zS2s1M2XaJKK0qK0rWlRG2blGWPhi34b2OhveemDhuY6G956YobdwfVKyz8wZ5K9i0p3LsCnNkBVSu1NK030MYG7dldlzTMsF5NqrLny5suhNaVFd3OIlRg1aKuU0Nl3EBq2AbNbZcZXNAoDiyFBNAXKkAgnREQOBB7pzfoT78XN08JlSU4zNGdDmyJOQMZK5kqR220NO2rujb3tt0SMo7NFvabPLxArLXMpKN9DTtq7opqp1AvptXIV/Ag905v0J9+NDcXDNyz5sTCplDgCFIyhspPGprXMeaPq5+KaZ+aRLCULecKOYuhVMoKt2Uc3PGpvneIWfKqmS2XMqkpyhWWuchO+h3Vg5T4YjGHKM7jd3MPlkeswo8Pbzos2aVMLbU4CyprKkgGqlIVXXk4n9Y3RvMLx1s9LZlTTb7QnbD4IgUyjJvz768kZi/WG6rMl0vmaDuZwN5Qzs+2ClVrtFfV3U5YvCktLKTtvUjVTlrIvIkSbSVSymVdklbgDgIALWWiSNfha18EfMnZ/wDLVZh5fZImKMhLadmUkVXUlSjUUFIqMAj8ef8Au566IZmIV0DabLTQfDOzc2lSjaV4pTSmZNO231irdPT9C0fEtX1FHiNf1u022UIYW2W1lRKiDWoppSK+4dy12oXwh9LWxCCcyCvNtM/MoUpk/rGy4DF/+oJ/+Mf3o+mW/wCV6qUey+zKJGUbDJsKnlK81dr4KU5a6X1pKoldDu5Gvw4uQuzA+Fvpd2xQRlQUUyZudRrXN/SNtCe4ckdAV6Ye5G0uBfMWmh1YYLWyUE0K89aivMKRjJS5ZpFx4QvP4gD8ZlfJK6wihuNh8u02XHkzCWghwtUU2V1olK61Ch9f+kNLELD82o404JkM7JJRQtbSuY1r26aboyzdrC7I7DUkzZfJmc4+Ay1Aay5Tnr83WteXdpGsZ+GlyUcFqblwYG+92VWbMJl1Oh0qaDuYJy6KUtFKEn6m/wAMXVzMNnLRluyEzKWxnUjKWyrteWuYc8U1/r0i0plMwGi1laS1lKs/aqWutaD6+7wRf3FxMTZ0r2OZUu8dS8wcCe2ppTKeaLty07cmaUNX7Gll71IsBKbOdbXMKQC7tEUQCHCVUoSTUfbEeZueq3j/AKk0+GEPDKG1ozqGyJaNSFAalNYX1+LyC0ZozIaLdUJRlKs3a11rQc8O7BjuRL+M7/lXGcvCtX1NI1J19BE3osYyU27KqWFlopBUBlBzoS5uqaUz038kbG7WFDs5KtTKZtCA6nNlLRURqRvziu7milxbPyxOfa3/AIWo0N1sWkycozLGTUvZJy5tqE11J3ZDTfF25aVRVKKk7HFdqzDKyjEuVBZaQEFQFK05aa0i1iru3avZcqzMhGTbIC8tc1K8laCsWkcz5OgIIIIAIi2l8y74ivUYlRFtL5l3xFeowByfdQ/G5L7wz10x1TbtodjSz8xlzbFpbuWuXNs0ldK0NK0pWhjlS6R+OSX3hnrpjp+/Pc2f+6vf41Rrk3aM4fUUdu4yKmpZ+X7BCNs0prN2Rmy5wU1pshWld1RGUw1PyrJeV/SqKi7lniammJdSikPOJbKhqRm0qId93cImZSZZmUzTiy0rMElCQDoRrT7Ys3GKoqrk7GXFLe+wuzpR2V2mz2mXj5c1Mqkr3VFa5ab+WPq9lsGTk3pkICy0nNlJy11A30NN/NCp4dnegN+nP7cZRTe6NG19TS3OwrEhNomeyy5kChk2WWucFO/OefmiZjb3Jd8o110xV3IxVctCcblVSiGwsKOYOlRGRJVuyDm54tMbu5LvlGuumJ31KyFVbC2wJ7qH7u51m43mPnc5v7yjquQnbk3oVZsz2QloOnZqbylWTtik1rQ/V3U5YYkneH+ZlGQda7GS2Oyg42vaElshvLQpAodtWvgi0vNZWO8aK7AA/Hn/ALueuiGZiHfA2Wy06GNttHNnQubOnFKq1yqr2u6kQ7jYdN2Y8t5Ewtwrb2dFJAA1Cq6eLFH/ABC/Q5b7x+hcVbUpFknGJeYdYgG1VvoMsGdilKqh3aZs5UPqJpTLGX/iH7WS8Z31Ihf3Bvsqy1vLSwl3bJSkgrKKZCo8iTWuaPa/1/V2oGQqXS1sSoiiyvNnyjlSKUyxZRqWxVyuJkqxtLgYgmy0OoEsHtqoKqXdnSgpSmRVYw9YKxq6fJknTtDk4dVf+nJ/+T/+MeiLJ/mYdmFfYhYJlsgG3zUAdzZuJT5ylKcm/WEvWNzcPEddlsOMplkuhbhdzFwopVKUUoEn6la+GM3GvKaKV7SK6/8Adf8A0yZTLh7a5mku5suTtlLRSlT9Sta8sZusX1+b1qtOYTMKaDRS0GsoVn7VS11rQfX3U5IztY0Tdbmckr2GVcjC8WhKJmeyy1mUpOXZZ6ZFFO/ON9OaHLcy7/8Ap8o3K7TaZCo58uSudSl7qndmpvjPYIdyWvKOdcxW35xUcs+bXLJlUuBCUqzF0prmAVuyHn54wk3J0bpKKs+724Tiem3prswt7UpOTZZqZEJb35xWuSu7lhNXssfsKcelc+02RAz0y1zJSvdU07am/kjpS5FvGfkmpothsuZ+IFZgMi1N76Ctctd3LGVvPhMzOzTs0qacQXSCUpSkgZUpRoT4sTGbWzIlBPg0eG/cuS8gn1RporLvWWJSWZlkqKg0gICiKEhPKYs4zfJoEEEEAEeL7WdCknTMCn8RSPaI846UNrUN6UlQr4BWAFtZmC8ow606mZmCWlpcAOShLZCgDRNaVEMO17PTMMPMKJCXm1NEjeA4koJFeWhhGpx0niB8Wlvz+9H7w5z3Rpb8/vRepMrqSNnYmD0rKzDMwmZfUplYcAVkoSnWhomtIZcIHh0nujS35/eg4c57o0t+f3oOMmNUUOu8dkJnJZ2WWpSUupylSaVGoOldOSF5wGSnSpn+37kZfh0nujS35/eg4dJ7o0t+f3oJSRDcWb66mFsvITSJluYeWpAUAleShzAp5Eg8sfWN/cl3yjfXTFBh/ilNT883LOsMIQtKiSjNXiJKhSqiN4i/xw7kPeUb66Yje9ydq2Evhxdlu0pwy7ji0JDSnKopWqSkU1BFOMYd1ysNmLNmFTDT7q1KbLVF5aUUUqrxUjWqBCswEPyofu6+s3DcxMvS7Zsol9lCFqU6lujlaUUFGuhBrxREybboiKSVmwjM33ue1abTbTrjjYbXtAW6VJoU65gdKKhTcOk90aW/P70HDpPdGlvz+9EaWTqRAxPuAzZbTC2nnXC6soIcy0AAzaZQIj4XXJatQzIddcb2IbI2eXXaZ61zA7sg/ExBvviA/aiGkPNNIDSisFvNUkjLrUnSPG49+X7LLxZbbXtsgVtM2mzzUpQjfnP4CL70U2stcUbkNWWZYNOuObYOE7TLps9nSmUDfnP4CMLWHNYYF6AsztWDJ0DfYxAzbfVWbaBW7ZJpSm874yGKty2LLXLpYcdWHkrKtqUmmQpAplSn6x3wUvoxKP1ROwxw9YtRh11151stubMBvLQjKlVTmB140bPgMlOlzP8Ab9yPn+Hb6HM/eP0IiZihiLMWZMNMstNLStraEuZqg5inShGmkVbd7FklRF4DJTpcz/b9yFfiNdhuzZsS7bi3ElpLlV0rVRUKaACnFEPXDC9btpyq33kIQpLxaAbrSiUoVXUk1qswpsfT8qJ+7I6zkTGTumJJVseNz8UnrOlUyyJZtxKVKVmUsg8clW4DwxspG5jNvNptN9x1lx6qS20UlI2Ki0KFSa6hNf8AeKXDvC+UtCRRMuvTCFqUtJDZQE0QopHbIJ3Dnj3ti+jtguf6ZKttutMgKSt6pWS7V01yZU9so0oN1Ihu3sFxuNm6thIkJVuVbWpaW81FLpU51KcNaADeoxcwgOHSe6NLfn96Dh0nujS35/eiNLJ1If8ABFPdO1FTUnLzC0pSp5sLITWgKtdK60i4ipYIIIIAIi2l8y74ivUYlRFtT5l3yavUYA44kG8620E0ClJSaf8AuIH/AJh88BUl0qZ/t+5CHsg/DMeUR1hHXd5p5TEnNPopnZYcdTXUZkIKhUc1RF2yqSF5wFSXSpn+37kHAVJdKmf7fuRieG+1Pqyvo1fuQcN1qfVlfRq/ciNxsbbgKkulTP8Ab9yM3iFhZLWfIuTTTz61IUgBK8lOOoJO5IO4xNuHitPzloS8s8mXDbqlBWRCgrRClaErPKkckbDHLuO/47fXTC2KQo8ET8sMeI51DHQN6rvNWhLKlnlLShRSolsgK4hChQkEbxzRz5ggflhjxHOoYeWJVvvSEg5MsBBcSpAGcFQ4ygk6AjkPPCXIjwQ7oYaSlnTBmGHJhSygt0cUkpoogncgGvFHLFP/ABB9zW/vKOq5FfhZiRO2jOmXmEshAaU58GhSTVJSBqVHTjGGHeu7MvaDIZmM+QLDgyKynMAUjXmooxF77k/Q5FrG6wpudL2o6+3MLdSG0JWnZKSk1JI1zJVpF5i3h/JWbKNPSwczrfDZzrzDKULVupvqkRhrnXwmbMW45LBslxISraJKhQGulFCL3a2KVT3HRwG2b36b9I3+1BwG2b36b9I3+1GC4brU+rK+jV+5Bw3Wp9WV9Gr9yK+ItsOW5Nx5eyw6JdbyttlKtqpKqZM1KZUp+sYWv8R/zsj4jvrbik4b7U+rK+jV+5GXvjfSZtNTSpkNAtBQTs0lPb0JrVRr2ogk7Daobn8Ov0Oa+8foRGovnh3K2m6h59x9KkI2YDSkpFKlWuZCtamEJdDECcsxtbUsGSlxe0O0QVGtAnSihpQCL/hutT6sr6NX7kKdi1Q7bnXUYsxhTDCnFJU4XSXCFGpCU/8ASlIpRA5OeEnj+flRP3ZHWcj84b7U+rK+jV+5GPvZed+0Xw/MBAWEBv4NJSKJJI0JOtVHlgk7Daov7rYoTtny6ZZhuWUhJUoFxCyqqzmNSlxI3nmhgWNcyXt5hFpzi3UPvVSpLCkoQA0pTQoFpWocVIrVR1rFZhlhrIT9ntzEwHdopS0nK5lFEqKRpTmEeF5r5zNhvmzpJLWwZSFI2yVLXV34RVVBQrxlHkh+B+TUcBtm9+m/SN/tQmL92O3JT8xLNFZQ0UhJWQVcZCVmpAA3qPJHSWHVuOz1nsTTwSHHM+bICE8RxaBQEk7kjlitt7C6z5yYcmXg9tHCCrK5lGgCRQU5kiCkw4ossNe5Uj5BHqjTRBsazW5ZhuXarkaSEJzGpoN1TyxOipYIIIIAIi2p8y75NXqMSoi2p8y75NXqMAcb2QfhmfKI6wjrW/fc2f8Auj3+NUckWOfh2fKI6wjre/fc2f8Auj3+NUSyEcgAwVj4BgrFrK0bTCA/LEn4y/8AGuHZjn3Hf8dvrphI4PH5Yk/GX/jXDtx07jv+O310xV8llwKDA4/LDHiOdQw38dO473jt9dMJ/Aw/LDHiOdQw4Mde473jt9dMHyFwK/8Ah+7qK+7r6zcdIRzb/D4flRX3dfWRHSUGEUl6bsy1oNJZmkqUhKw4AlRTxgCnePAowmsYriSNnSzLkq2pKlvZFFS1L4uVStxPOBHQEUt5rsys+2luabLiEKzpAWpFFUIrVJB3ExBJx7WGZgvc+UtIzfZSFK2QbyZVlFM+0ruOvaiJuNVy5Gz2JdcoyW1LcKVEuLXUBNf+pRprFj/DSdbQ+xn/AJYs2VSNlwN2R3lz0y/bBwN2R3lz0y/bDAgipY5oxkunK2c9LolUKSlxClKzLK6kEAbzpvhdVhwfxI/SJPyS+sI+sGbjSFoSbrs0yXFpfLYIcWiiQhCqUSoDeo6xZMq0fmD9wpG0ZJx6abWpaX1NgpcUnihLahoDTeoxlMXLuy9nzqWJZJS2WUropRVxlKWDqddyRHR127uS0g0pmVbKG1LLhBUpfGICSaqJO5I0ivvHcKz550PTTBW4EhFQ4tHFBJAolQG9RiLJo58u3iXPyDCZeXLWzSSoZkZjVRzHWvOYory2+9PTCph/LtFAJOUZRRIoNK80X2LlhS8jaBYlkZG9khWUqUrVVa6qJPJGKrEg293cT7QkpduWYLWzbzZczeY8dRWamvOoxZcNdq/WY9F/9o2OGOHVmzlmS8xMS5W65nzK2ria5XFoGiVADipA0EKzEey2ZS0pmXYTlabKQlNSqlUJUdVEk6k7zEbDc6dubaTkzIyz7tM7rSVqoKCp5hF3GYw07lSPkE+qNPEEhBBBABEW1PmXfJq9RiVEW1PmXfJq9RgDjSxz8Oz5RHWEdlz8mh5pxl0ZkOoLa01IqlYKSKihFQTqI4qaWUkKSaEGoPMRrGl4RbW6e/50AdA8Edi9C/vPfuQcEdi9C/vPfuRz9wi2t09/zoOEW1unv+dAHRlj4c2XKPIfl5XI63UpVtXFUqCk6KWQdCd4itx17jv+O310wheEW1unv+dEW1L42hMtlp+adcbVQlKjUGhqP6iANFgV3YY8RzqKhw469x3/AB2+umE9gV3YY8RzqKhw469x3/Hb66YA50u9eCZkXS9KubNwpKM2VK+KaEiigRvA5IcODF+bQn55xmamNo2mXU4E7NtHGC20g1QgHco6eGEPDV/hz7pvfdV/5GoA6Ohc413lmpCVYclHdmtb2RRyJXVOVRpRaSN4EfWNd4JmRkmnZV0tLVMJQVAJVVJQ4qnGBG9I/CMhhZaTltuPs2ooTTbKUuNpWlKQlRJTXiBNTQ01gAw0mFW+Zhu1j2ShgIW0KBnKpeYE1ayE1AG+se2JSBd9LCrI+LGZKg9//bPsgCj57PlpnV2tK11rQUkYooFiMsuWUlMqt5wocKAFZkpBIBz5hoSd0J+8d7Z2fCBNvl0NklFUpTTNSvapHMN8APLA+9c7aCZszj212ZbCOIhFM2evaJFa5Rv5o8Mb74T1nrlRKP7IOJWV8RC65SinbpNN53RWfw09pP8A2tepyGnbt2JOdKDNMIdKAQnNXTNSu4+AQByleS9M3aCkKm3tqpsFKTkQigOp7RIr/vEq7t+bQkG1NSkxs0KVnI2ba6qICa1WgnckaR0fwaWR0Fr83thLY5WDLSc2wiVZS0lTOZQTXU5lCup5hAFZwuW103+yz+3BwuW103+yz+3GGggC1t+3pied2005tHMoTmypRoncKJAHLzQ6MLsPbMnLMYmJmWzurK8ytq6muVakjRKwNwA0EIKNTY1/7SlWUsS80W2kVypCEGmYlR1KSd5MAdVWLZDMowiXl0ZGkVypzFVMxKzqoknVROpjmHGQ/LM54yP8aIOFa2emq9G37kZi17TemnlvvrzuroVKIArQBI0AA3AQB1dhp3KkfIJ9UaeMxhp3KkfIJ9UaeACCCCACPNxAUCCKgihHgMekEAZng/sroEv5gg4P7K6BL+YI00EAZng/sroEv5gg4P7K6BL+YI00EAZng/sroEv5gg4P7K6BL+YI00EAUNmXRkJdwOsSjLbiagKQkAioodfsMWNqWazMtlp9tLjZIJSsVBI1Gn2xNggDM8H9ldAl/METLHuvJSqy5LSzTSynIVITQlJINPsqkfhF1BAFdbFjS82gNzLKHUBWcJWKgKAIr9tCfxjwse7cnKKUqWl22ioUUUJy1A11i4ggCstmw5abCUzLCHQk1SFioBOlRFZwf2V0CX8wRpoIAqrFsCVlM/Y0u2znpnyJy5staV+yp/GLWCCACKa17syc2oLmZZp1SRlBWmpA30HgqTFzBAGZ4P7K6BL+YIOD+yugS/mCNNBAGZ4P7K6BL+YIOD+yugS/mCNNBAGZ4P7K6BL+YIOD+yugS/mCNNBAEaSlG2W0tNICEIGVKU6AAcg8ESYIIAIIIIAIIIIAIIIIAIIIIAIIIIAIIIIAIIIIAIIIIAIIIIAIIIIAIIIIAIIIIAIIIIAIIIIAIIIIAIIIIA//2Q==;" vertex="1" parent="1">
          <mxGeometry x="1421.62" y="756.5" width="76.75" height="76.75" as="geometry" />
        </mxCell>
        <mxCell id="u30Uzijzj81HhDyL5Jik-111" value="Name: XYZ&lt;br&gt;Date of issue: 1/1/2022" style="text;html=1;strokeColor=none;fillColor=none;align=center;verticalAlign=middle;whiteSpace=wrap;rounded=0;" vertex="1" parent="1">
          <mxGeometry x="1409.99" y="848.5" width="100" height="15.75" as="geometry" />
        </mxCell>
        <mxCell id="u30Uzijzj81HhDyL5Jik-115" value="" style="rounded=1;whiteSpace=wrap;html=1;" vertex="1" parent="1">
          <mxGeometry x="1576.02" y="685" width="120" height="210" as="geometry" />
        </mxCell>
        <mxCell id="u30Uzijzj81HhDyL5Jik-116" value="" style="shape=image;verticalLabelPosition=bottom;labelBackgroundColor=default;verticalAlign=top;aspect=fixed;imageAspect=0;image=https://assets.justinmind.com/wp-content/uploads/2021/01/what-are-app-wireframes.png;clipPath=inset(7.38% 57% 84.84% 9.67%);" vertex="1" parent="1">
          <mxGeometry x="1583.3899999999999" y="695" width="105.26" height="20" as="geometry" />
        </mxCell>
        <mxCell id="u30Uzijzj81HhDyL5Jik-117" value="" style="shape=image;verticalLabelPosition=bottom;labelBackgroundColor=default;verticalAlign=top;aspect=fixed;imageAspect=0;image=https://assets.justinmind.com/wp-content/uploads/2021/01/what-are-app-wireframes.png;clipPath=inset(85.25% 11.67% 6.15% 54%);" vertex="1" parent="1">
          <mxGeometry x="1592.5" y="875" width="87.03" height="17.75" as="geometry" />
        </mxCell>
        <mxCell id="u30Uzijzj81HhDyL5Jik-118" value="" style="rounded=1;absoluteArcSize=1;html=1;arcSize=10;strokeColor=#F0551D;" vertex="1" parent="1">
          <mxGeometry x="1584.7" y="759" width="102.63" height="25" as="geometry" />
        </mxCell>
        <mxCell id="u30Uzijzj81HhDyL5Jik-119" value="R1" style="html=1;shape=mxgraph.er.anchor;whiteSpace=wrap;strokeColor=#F0551D;" vertex="1" parent="u30Uzijzj81HhDyL5Jik-118">
          <mxGeometry width="51.315" height="25.000000000000004" as="geometry" />
        </mxCell>
        <mxCell id="u30Uzijzj81HhDyL5Jik-120" value="12:00pm" style="rounded=1;absoluteArcSize=1;html=1;arcSize=10;whiteSpace=wrap;points=[];strokeColor=inherit;fillColor=inherit;" vertex="1" parent="u30Uzijzj81HhDyL5Jik-118">
          <mxGeometry x="51.315" y="1.25" width="46.183499999999995" height="22.500000000000007" as="geometry" />
        </mxCell>
        <mxCell id="u30Uzijzj81HhDyL5Jik-121" value="Drop Cab Pickup Timings" style="text;html=1;strokeColor=none;fillColor=none;align=center;verticalAlign=middle;whiteSpace=wrap;rounded=0;" vertex="1" parent="1">
          <mxGeometry x="1593.52" y="721.75" width="85" height="30" as="geometry" />
        </mxCell>
        <mxCell id="u30Uzijzj81HhDyL5Jik-122" value="" style="rounded=1;absoluteArcSize=1;html=1;arcSize=10;strokeColor=#F0551D;" vertex="1" parent="1">
          <mxGeometry x="1584.7" y="789" width="102.63" height="25" as="geometry" />
        </mxCell>
        <mxCell id="u30Uzijzj81HhDyL5Jik-123" value="R2" style="html=1;shape=mxgraph.er.anchor;whiteSpace=wrap;strokeColor=#F0551D;" vertex="1" parent="u30Uzijzj81HhDyL5Jik-122">
          <mxGeometry width="51.315" height="25.000000000000004" as="geometry" />
        </mxCell>
        <mxCell id="u30Uzijzj81HhDyL5Jik-124" value="12:15pm" style="rounded=1;absoluteArcSize=1;html=1;arcSize=10;whiteSpace=wrap;points=[];strokeColor=inherit;fillColor=inherit;" vertex="1" parent="u30Uzijzj81HhDyL5Jik-122">
          <mxGeometry x="51.315" y="1.25" width="46.183499999999995" height="22.500000000000007" as="geometry" />
        </mxCell>
        <mxCell id="u30Uzijzj81HhDyL5Jik-125" value="" style="rounded=1;absoluteArcSize=1;html=1;arcSize=10;strokeColor=#F0551D;" vertex="1" parent="1">
          <mxGeometry x="1584.6999999999998" y="820" width="102.63" height="25" as="geometry" />
        </mxCell>
        <mxCell id="u30Uzijzj81HhDyL5Jik-126" value="R3" style="html=1;shape=mxgraph.er.anchor;whiteSpace=wrap;strokeColor=#F0551D;" vertex="1" parent="u30Uzijzj81HhDyL5Jik-125">
          <mxGeometry width="51.315" height="25.000000000000004" as="geometry" />
        </mxCell>
        <mxCell id="u30Uzijzj81HhDyL5Jik-127" value="12:20pm" style="rounded=1;absoluteArcSize=1;html=1;arcSize=10;whiteSpace=wrap;points=[];strokeColor=inherit;fillColor=inherit;" vertex="1" parent="u30Uzijzj81HhDyL5Jik-125">
          <mxGeometry x="51.315" y="1.25" width="46.183499999999995" height="22.500000000000007" as="geometry" />
        </mxCell>
        <mxCell id="u30Uzijzj81HhDyL5Jik-129" value="ETA : 10 minutes" style="rounded=0;whiteSpace=wrap;html=1;" vertex="1" parent="1">
          <mxGeometry x="1586.01" y="850.5" width="100" height="19.5" as="geometry" />
        </mxCell>
        <mxCell id="u30Uzijzj81HhDyL5Jik-130" value="Select Pickup Points" style="text;html=1;strokeColor=none;fillColor=none;align=center;verticalAlign=middle;whiteSpace=wrap;rounded=0;" vertex="1" parent="1">
          <mxGeometry x="725" y="723.25" width="80" height="30" as="geometry" />
        </mxCell>
        <mxCell id="u30Uzijzj81HhDyL5Jik-131" value="Select Office Branch" style="text;html=1;strokeColor=none;fillColor=none;align=center;verticalAlign=middle;whiteSpace=wrap;rounded=0;" vertex="1" parent="1">
          <mxGeometry x="616.48" y="1145" width="80" height="30" as="geometry" />
        </mxCell>
        <mxCell id="u30Uzijzj81HhDyL5Jik-132" value="Metro Pass" style="text;html=1;align=center;verticalAlign=middle;resizable=0;points=[];autosize=1;strokeColor=none;fillColor=none;fontColor=none;" vertex="1" parent="1">
          <mxGeometry x="1419.99" y="915" width="75" height="20" as="geometry" />
        </mxCell>
        <mxCell id="u30Uzijzj81HhDyL5Jik-133" value="Metro Timings" style="text;html=1;align=center;verticalAlign=middle;resizable=0;points=[];autosize=1;strokeColor=none;fillColor=none;fontColor=none;" vertex="1" parent="1">
          <mxGeometry x="1753.6799999999998" y="900" width="90" height="20" as="geometry" />
        </mxCell>
        <mxCell id="u30Uzijzj81HhDyL5Jik-134" value="Metro Pickup&amp;nbsp;" style="text;html=1;align=center;verticalAlign=middle;resizable=0;points=[];autosize=1;strokeColor=none;fillColor=none;fontColor=none;" vertex="1" parent="1">
          <mxGeometry x="1592.5" y="905" width="85" height="20" as="geometry" />
        </mxCell>
        <mxCell id="u30Uzijzj81HhDyL5Jik-137" value="" style="shape=image;verticalLabelPosition=bottom;labelBackgroundColor=default;verticalAlign=top;aspect=fixed;imageAspect=0;image=data:image/png,iVBORw0KGgoAAAANSUhEUgAAANgAAADpCAMAAABx2AnXAAAA4VBMVEX///8REiTrHCIAAADa2tvqAADrGR/rAADrFh3qIyj77O39+fb2ycv87ewODyLqAAoAABcAABvqAA/rEBgAABMAABj65eX89fXzsbL30NHzqqz0t7nsUlbqMTfypKfsQ0f32NnucnbymZzuaW6UlJpBQUxdXWdxcXrrKzL43t71xMXtYGXvgoTpNz7rSEzueXuNjZUpKjgAAB8AAAwhIjJ7e4LtW13wjI/viovvcHD2vb3xlZfqTVLvd3wZGyo0M0BKSlRiY2uqq67r6+vDxch1dH0tLTmFhYy1trdSUlyTk5i8w3xdAAAMCklEQVR4nO2ciV/iOBTHpZBSrsYmyH2UG+QQR65RR8QVGf3//6DN0UKpiDA70tTNdz6rNBQ3P5K8vLy89OxMIpFIJBKJRCKRSCQSiUQikUgkEolEIpFIJBKJRCKRSCSnJBr1ugZfQxWAqtd1+AoSQFVBwutafAFRoCjgO3bGhBTmM6QwvyGF+Q0pzG98G2F5jG6d1++F3SKUP22d/gYxoGrYqeOdsATWNBA7db3+M0xH1V3gFFaF/uybE6yo7fTm2i0s3dYUPDl9vf4z2TARktlcu4Vl6HX29PX67wywohU3l25hRdJgg9PX6i9wS5VsDKNLmOtdX9HXFO1+feUSdk/e7HtRq6Mxp+7vv0SkwPUo2hZGR2C45PrA7cz8wgr+IWYYgp6rDKkKrtkX26GBGrGZyHV7D6Cw+YVV/DOmdFaqpbfK7kgZ7FgXaQXjiP1+B6oKvNu6OVYjytH062t6JJekWgosbymLkuqjdTPGy+W4/bqHFBVuhazSA/ItKODy62t6LCWgKgpWOs4yUn+tvOvmsuZQTOmQjyoqcI86IbhFmqJo2PmdpyDcHSStAghTjutLTHRpSMD2opgqrR3MOYummd33Zqam4yrHWlszd9/rPdEyIv0pfLQBmFJdqCywQxzrMgtQOWoxEqswu9NNf36rh1yxSt67K5nO5nq1brfWy2XfvXXPvoyrU9XwT6myblV0dqt0poABRJiAIMSFjFNbtEi7rx/2YfLUOMKNLY/OIMBELKk+QuSFigGYbaawHqTm0BchgqyGHcKqGmSqiK7I3awWAUS3CrW110GEYc0ny7JUH7RT65eWLDKMmN/RqUYAkQb69h3t9UsfYNf0FmJlDbCdktsBUYvDedfNPiK3aS6CVr7MWjYlh4hzD3L7Py0u+S1dRBkA6qDEtKX6aDsiIibRnXNr1qWLGRANgismjUzlKojv+lxaGA+kC7RuyXSX0vDaTqDG+iBRpkXcm+0xs9TFoOb+W95AVmIqhqBYyW9Vs4J266LT8S/yfqyMFbQlIZH/WSQTuCrKqowtMemCBYDiLG73yiz4SBc1kF1yR0pTlXVnjMWnRWBN5KIIO6usa6QhoFiTbQHvEcZdwxxQsBXFyip04mbNicOg4pkUF9FMBYchF4d41DoL9+myLGJRs2PBE8RFEe/L1aM9xywVqLukWsJ+fTjC7HGWYEFTxFtnglTa2oX3NkgEEpezAWyb9GW6/d7Ub0NDHrG+pvLAldkGg15crKbaxprSzH2mgzeZSmRMkd0XxZm89lP9ZIjRUZZjphP6YCXm4OqTIUagMeJoRMU/va7rUdx/4HU4+2I7RuOLu+OOwvKp7aB9MU23PVXF67oeBT5EGFmIVbAKvK7rUXxqFKkwk8XAfSUsdpCwPG0x1iN9Q/QQYWokN0W8R4pJOrbBKuocIkxRIbJ6JMPxZ0RoxFxkC74PRDdiP0eDCNvBq7PS9t/xPB6SAJrqQOPf/+UhLaYV02yMsa1r0/13vPYb3Z2Ou375Q4Shu7OzeJjZkPfrUtDZ///9erpgiwIrzHzuKhJhM+4s8l5XAGHn3+l6qYljxh1Yy+fSIcIwWYqlyIrM8oKzzr9jeiZnP9PPfWCF5SPdhl170YLz2frZarL7K6vhfENtbyRn02bUpfRVat/+EJVLnZ9S4MqfL8c2wvyRKsYpHiFMbXtd2yP4KGy/U1jE69oeTlo5YJ25Fqb4JEBFiB6hiwwyYdct7+gcEhlYgzx3Cw/GPGh+toE+yRk4+2QL6R0+ylGPH7TOXAsTZDfsAG6PazHh99jX5A5ZtayBQqaV7mQKAEQUzNFcWMXsFgjAzOv6HoyZz5Sq01mvd1WpdbuTwv2gTOgT6O/BfaEw6dYqV73ebFotZfKm1/X9n9PJVUu5/GU8a6aiCUqawwOGDFoaTaQ62fhlPleqlvxg71MTABCE66AMzVCMtNvtogV5GVFUjDZhG0juLu9M0REJE79bYqq7cN2jiW7y05Ej1itb6r2PI+6ldJTL4QQLEEjcwzGxDleTIZHP18YiRy3EtlhvuohI7J1VOBxoel37fQz+0HYo7kNXonF3lFvvBBe8rvteEn9q7oVfbcbBH9lFHxwBMfthfoqFrVV2eRlMCN20tNcvCIGIH46AZKs9sliZFAblPvEMyejBTt+RuIaI+4/FfnnAly/vzhkLDnXliRMfTb0jGmU+v8hTskQikUj+t3w0Q9Hg1K60Nhq3+uIq/QXivwbEEe5378ztcnNaiECAit3q9jZfotQtqlr7/lde6H3NVIGeAiF+IIag4AipZQcAatRpVDFENYeEnAow/wBQeuK2m+n07fHmMHrPWa6iTaxt5jgUSMqFXbrwZAFsxxbtik6s5aeqqdYixToFzbebVLIS4F+FqKksOcAaalKZwDDVxjMRz2psU0kDoF3WAGLarAO1bFkKIz9rfdJTla2nWAkFDb7hARsplxOAocZKS6xZYJ+tTaJT3pwsJsVO9vDdsUQ1AjC4++APe0ya5uOs913jlR6zf1G20twc0e/0qTIW4qB5qOuEo3S15nke8AewM2PQvRamTzqyj78xoixXgo4/KoydcBGcWF+jCUSurXJqUFTsrH2exsFp+iWzHagmdNyN0cXMSJTvHA8jYcnQrqdN0S6rRVjeLLM2tYzguTn2uWEE2jX7YST0YYPu2FqPnSMgN9xjbu4BLM+EncMoNXu+pXWdMWks7dl1fIVNC9Qudta7aeTL6Iuc7jGz5imqDUZMUlJlrbN9Fxtk7ClvncHGJ9HEOf68g84VDlsntRUNRj9oMVbGd/oy9wDaKWXspL6wxC5nRQiZNvokAT7GtnsZH2O2oUzkuqrtkAg90AipHH3ylqIqaW75XBnodBdtOxM4e6Vq1hwgOqxVkMkei+k6I5ajQ8z1DMKzDp3dsSDPu3BjljZuB330A8tErAKX395h3Y5JzThO4N8hYVPwLwEEZdO6YLmYuGMnEqCB3WZxRbN9xy75wNS2K1fUgxbzTDR1PIgbcUkXyFm6t8kTzzPcv9CmZjQdjf9kT6lij17hzn37zkzTCAH9IgQ9xV5D3ENSiv02Pcpnu/SVMF8gQyWi8mlLZeavw6ZzDaJ2v6/Q/qlCMZM9ssiabOm+GP2FrW5WsRwSe68MQx4OubLLNT7zCZvf15k4YxtINe03StCR/ayG1wMxpzhjHqI8A2gX8QkII7qXiSHoOkx86icIsy1OjIDmSChNl7QwZPejsOCJpul8r1AuD2qllLu8MugX+4Wp27kwS7VBuVzoiewCSyQSiUQikUgkEolEIpFIJBKJRCKRSCQSiUQikUgkEolvCX1TzoLflLPAN0UK8xuWMN36L+D4HQgYRkDfXJFXurG5FBwuTG/oAf36gb+e2++dN1+TLw1bysOjro+ac78o48KMxcI4H54nzwMXyeDwwUgmL/Rk8InQqgeTwaBuBIMvoWBwvmr4S5g+GiZH4/HbKjiuL8f1l3p9/Fh/Db0Gg61/mm+h0HUjFHp8bpDfJ20xMg7IP/7TWF/RIbEup+PFMPQHnYwScs8F/eEQFki+BVqt5XmrtQgGVz+GgWBr+XrTeA6NW2/Xz8HF03MjeP1PyND1E+oymvPWwyg5Gs3PXwy9NW5c6yPjofH4oBvX5N9DYJRcPNZHzXGzPm8NA/VAfRF8ehm2DKcwY9FcNesL8mkjudLrN+eL1aNxE/wRGr89/g7Ofz/fJF/+CY1O2g/10Wq8Ih2oWSffeb05bi3Hq9fV4unxZtgcL1tP9eG8df40bw7HT0bztfk2f2q9PjVW9aRTmK4/jR+G+vV1nRiIRasZqDdfjXprSLrfS6j1PH77PW48P4ZuTikskHx6HTaXy8fVqjlsvo5XreF4sVqsWoGnRn0xHC+by0eicFivD6+HN6vf4+Wy9awvVudOYQGjNTJeVmPjerhMLoKL4ehlrr++jS+Szccf9UXyhnTJVnB5WtOhPwQuGsnG6NpokI7XOJ8H5sn5S+DlWm+QktHooREYNZIXo8A8MNKToyTpbSO9wXVtJmgyQ+kXZISeGwHy75yOJoPYRlKuJ0mvNZJkVJ56FuNmghsN+xXHNiPMknArsvmxLey7IYX5jW8r7F/T7SUfPWcF2wAAAABJRU5ErkJggg==;clipPath=inset(15.24% 26.85% 22.96% 25.46%);" vertex="1" parent="1">
          <mxGeometry x="1672.02" y="713.38" width="16.63" height="23.25" as="geometry" />
        </mxCell>
        <mxCell id="u30Uzijzj81HhDyL5Jik-139" value="Select Pickup Timing" style="text;html=1;align=center;verticalAlign=middle;resizable=0;points=[];autosize=1;strokeColor=none;fillColor=none;fontColor=none;" vertex="1" parent="1">
          <mxGeometry x="1210" y="915" width="125" height="20" as="geometry" />
        </mxCell>
        <mxCell id="u30Uzijzj81HhDyL5Jik-140" value="At the time of pickup" style="text;html=1;align=center;verticalAlign=middle;resizable=0;points=[];autosize=1;strokeColor=none;fillColor=none;fontColor=none;" vertex="1" parent="1">
          <mxGeometry x="1575" y="961.75" width="120" height="20" as="geometry" />
        </mxCell>
        <mxCell id="u30Uzijzj81HhDyL5Jik-142" style="edgeStyle=orthogonalEdgeStyle;rounded=0;orthogonalLoop=1;jettySize=auto;html=1;fontColor=none;strokeColor=default;endArrow=none;endFill=0;" edge="1" parent="1" source="u30Uzijzj81HhDyL5Jik-141">
          <mxGeometry relative="1" as="geometry">
            <mxPoint x="1370" y="1155" as="targetPoint" />
          </mxGeometry>
        </mxCell>
        <mxCell id="u30Uzijzj81HhDyL5Jik-143" style="edgeStyle=orthogonalEdgeStyle;rounded=0;orthogonalLoop=1;jettySize=auto;html=1;fontColor=none;endArrow=none;endFill=0;strokeColor=default;" edge="1" parent="1" source="u30Uzijzj81HhDyL5Jik-141">
          <mxGeometry relative="1" as="geometry">
            <mxPoint x="1900" y="1135" as="targetPoint" />
          </mxGeometry>
        </mxCell>
        <mxCell id="u30Uzijzj81HhDyL5Jik-141" value="During Travel" style="text;html=1;align=center;verticalAlign=middle;resizable=0;points=[];autosize=1;strokeColor=none;fillColor=none;fontColor=none;" vertex="1" parent="1">
          <mxGeometry x="1605" y="1200" width="85" height="20" as="geometry" />
        </mxCell>
        <mxCell id="u30Uzijzj81HhDyL5Jik-145" style="edgeStyle=orthogonalEdgeStyle;rounded=0;orthogonalLoop=1;jettySize=auto;html=1;fontColor=none;endArrow=none;endFill=0;strokeColor=default;" edge="1" parent="1" source="u30Uzijzj81HhDyL5Jik-144">
          <mxGeometry relative="1" as="geometry">
            <mxPoint x="1345" y="1160" as="targetPoint" />
          </mxGeometry>
        </mxCell>
        <mxCell id="u30Uzijzj81HhDyL5Jik-146" style="edgeStyle=orthogonalEdgeStyle;rounded=0;orthogonalLoop=1;jettySize=auto;html=1;fontColor=none;endArrow=none;endFill=0;strokeColor=default;" edge="1" parent="1" source="u30Uzijzj81HhDyL5Jik-144">
          <mxGeometry relative="1" as="geometry">
            <mxPoint x="95" y="1165" as="targetPoint" />
          </mxGeometry>
        </mxCell>
        <mxCell id="u30Uzijzj81HhDyL5Jik-144" value="User Registration" style="text;html=1;align=center;verticalAlign=middle;resizable=0;points=[];autosize=1;strokeColor=none;fillColor=none;fontColor=none;" vertex="1" parent="1">
          <mxGeometry x="623" y="1200" width="105" height="20" as="geometry" />
        </mxCell>
      </root>
    </mxGraphModel>
  </diagram>
</mxfile>
